<?xml version="1.0" standalone="no"?>
<!DOCTYPE svg PUBLIC "-//W3C//DTD SVG 20010904//EN"
 "http://www.w3.org/TR/2001/REC-SVG-20010904/DTD/svg10.dtd">
<svg version="1.0" xmlns="http://www.w3.org/2000/svg"
 width="1024.000000pt" height="1024.000000pt" viewBox="0 0 1024.000000 1024.000000"
 preserveAspectRatio="xMidYMid meet">

<g transform="translate(0.000000,1024.000000) scale(0.100000,-0.100000)"
fill="#000000" stroke="none">
<path d="M0 5120 l0 -5120 5120 0 5120 0 0 5120 0 5120 -5120 0 -5120 0 0
-5120z m5575 3395 c152 -18 377 -62 534 -105 61 -16 114 -30 118 -30 3 0 4 -2
1 -5 -2 -3 -47 4 -99 16 -597 130 -1339 90 -1985 -107 -371 -114 -793 -335
-1081 -566 -280 -226 -456 -409 -687 -718 -233 -311 -427 -679 -547 -1040 -48
-143 -50 -122 -5 52 130 505 373 962 738 1384 171 198 407 402 659 570 165
109 498 278 685 348 304 112 641 185 964 209 144 11 586 6 705 -8z m-1210
-426 c-442 -118 -811 -295 -1166 -561 -174 -130 -298 -238 -421 -366 -117
-123 -105 -104 31 45 281 309 649 564 1056 731 188 77 527 180 590 180 11 0
-29 -13 -90 -29z m-2019 -2166 c0 -100 42 -172 124 -207 39 -17 36 -18 -38
-16 -88 3 -177 -55 -204 -132 -15 -41 -27 -34 -18 9 15 66 -6 132 -59 183 -25
25 -54 50 -64 55 -14 7 -1 10 51 10 62 0 75 4 114 30 28 21 52 49 68 83 14 28
25 52 26 52 0 0 0 -30 0 -67z m-559 -105 c-3 -8 -6 -5 -6 6 -1 11 2 17 5 13 3
-3 4 -12 1 -19z m3387 -453 c65 -115 129 -222 143 -237 l27 -28 -73 0 c-62 0
-72 2 -62 14 10 11 7 25 -14 65 l-25 51 -154 0 -153 0 -26 -48 c-25 -45 -25
-49 -10 -65 16 -16 14 -17 -37 -17 -51 0 -53 1 -33 15 12 8 43 54 69 102 71
133 175 314 197 346 11 16 23 25 27 20 4 -4 60 -102 124 -218z m-647 -10 c68
-121 134 -228 146 -237 21 -17 20 -18 -50 -18 -68 0 -71 1 -66 21 4 13 -4 39
-18 65 l-24 44 -156 0 -156 0 -23 -50 c-19 -41 -21 -52 -10 -65 11 -13 6 -15
-41 -15 -50 0 -52 1 -33 15 12 7 79 116 150 240 84 148 133 225 143 223 8 -2
70 -102 138 -223z m-1121 204 c26 -7 60 -26 80 -44 30 -29 34 -38 34 -83 0
-64 -32 -106 -96 -125 l-45 -13 100 -97 100 -97 -47 0 c-59 0 -71 8 -162 114
l-74 86 -53 0 -53 0 0 -84 c0 -76 2 -86 22 -100 21 -15 18 -16 -57 -16 -78 0
-79 1 -57 18 22 17 22 20 20 222 l-3 204 -25 13 c-21 11 -3 13 123 13 82 0
168 -5 193 -11z m299 -3 c-17 -12 -13 -20 70 -116 l89 -103 59 64 c87 96 112
135 97 154 -11 13 -5 15 46 15 43 -1 55 -3 42 -10 -9 -6 -66 -66 -127 -134
l-111 -124 0 -81 c0 -70 3 -83 22 -101 l22 -20 -80 1 c-75 0 -78 1 -56 16 20
14 22 23 22 104 l0 88 -121 131 -120 130 82 0 c72 0 80 -2 64 -14z m1975 -165
l185 -180 3 167 c2 148 1 168 -15 179 -14 11 -9 13 33 13 38 -1 45 -3 32 -11
-16 -9 -18 -32 -18 -240 0 -137 -4 -229 -9 -227 -5 2 -99 90 -209 196 -110
105 -202 192 -204 192 -9 0 4 -355 14 -367 8 -10 2 -13 -31 -13 l-41 0 15 24
c14 21 16 54 13 211 l-3 187 -28 24 -28 24 53 0 53 0 185 -179z m733 164 c-21
-15 -22 -23 -25 -228 l-3 -212 -28 -48 c-33 -56 -97 -93 -130 -76 -17 9 -15
12 14 32 72 49 74 55 77 297 3 217 3 218 -20 234 -21 15 -19 16 57 16 74 0 78
-1 58 -15z m347 -9 c0 -13 3 -33 6 -43 4 -11 -2 -8 -18 10 -20 24 -33 29 -86
34 l-62 6 0 -107 0 -106 43 0 c23 0 53 7 65 16 22 15 22 14 22 -22 0 -30 -3
-35 -12 -26 -7 7 -37 12 -67 12 l-56 0 3 -96 3 -96 76 4 c72 3 77 5 105 38 27
31 29 32 23 10 -22 -74 -10 -69 -167 -72 -79 -2 -144 -2 -146 -1 -2 1 6 11 17
22 20 20 21 32 21 211 0 177 -1 191 -20 210 l-20 20 135 0 135 0 0 -24z m196
9 c-19 -14 -18 -18 21 -167 38 -148 40 -152 51 -118 6 19 29 95 52 168 23 72
45 132 49 132 8 0 101 -280 101 -305 0 -8 3 -15 8 -15 11 0 81 290 71 296 -20
12 -7 20 27 16 21 -3 31 -8 24 -12 -10 -6 -88 -276 -117 -404 -4 -22 -13 -41
-18 -42 -6 -2 -34 72 -64 164 l-55 167 -48 -155 c-27 -85 -51 -161 -54 -169
-9 -28 -22 6 -83 214 -47 157 -68 214 -84 227 -21 17 -20 18 58 17 72 0 78 -1
61 -14z m2236 -1 c4 -3 8 -24 7 -47 0 -35 -2 -38 -9 -20 -30 74 -177 72 -196
-3 -10 -38 21 -73 102 -117 92 -50 124 -85 124 -138 0 -74 -37 -116 -118 -134
-41 -8 -121 2 -144 19 -19 14 -42 96 -27 96 5 0 9 -6 9 -14 0 -8 16 -28 35
-45 69 -60 185 -33 185 43 0 47 -32 81 -111 121 -91 46 -109 67 -109 126 0 40
5 53 31 78 17 17 45 35 62 40 30 10 142 5 159 -5z m-1517 -30 c7 -40 1 -57
-10 -24 -9 27 -43 40 -106 40 l-49 0 0 -100 0 -100 52 0 c34 0 58 6 70 17 17
15 18 14 18 -27 0 -41 -1 -42 -18 -27 -12 11 -36 17 -70 17 l-52 0 0 -101 c0
-88 2 -100 16 -95 9 3 42 6 74 6 53 0 62 3 91 33 24 23 31 26 25 12 -4 -11
-10 -32 -13 -47 l-5 -28 -146 0 c-140 0 -145 1 -129 18 15 16 17 47 17 220 0
181 -2 202 -17 211 -13 8 19 10 113 11 l132 0 7 -36z m217 20 c-22 -15 -22
-20 -22 -220 l0 -204 75 0 c67 0 79 3 100 25 14 13 25 29 25 35 0 5 4 10 9 10
4 0 2 -20 -7 -45 l-14 -45 -147 0 c-124 1 -143 3 -128 14 15 12 17 35 17 219
0 186 -2 207 -17 216 -14 8 1 10 57 11 70 0 73 -1 52 -16z m498 -8 c0 -13 3
-33 6 -43 4 -11 -3 -7 -18 11 -21 25 -33 30 -86 34 l-62 4 0 -101 0 -101 55 0
c41 0 56 4 64 18 8 13 10 8 11 -26 0 -39 -1 -42 -16 -28 -10 10 -33 16 -65 16
l-49 0 0 -101 0 -102 72 5 c66 5 74 8 102 39 27 30 29 31 23 9 -4 -14 -7 -35
-7 -47 0 -23 -1 -23 -147 -23 -141 0 -146 1 -130 18 15 16 17 46 17 212 0 166
-2 196 -17 212 -16 17 -11 18 115 18 l132 0 0 -24z m366 5 c56 -25 74 -54 74
-117 0 -61 -23 -97 -75 -115 -19 -7 -31 -15 -27 -18 4 -4 36 -45 70 -93 34
-48 70 -89 80 -91 9 -3 -3 -5 -28 -6 -59 -1 -75 11 -140 106 -29 43 -62 85
-73 94 -19 16 -18 17 26 23 82 12 121 91 82 165 -16 32 -59 51 -116 51 l-39 0
0 -208 c0 -148 3 -211 12 -220 9 -9 -3 -12 -57 -12 -66 0 -68 1 -47 16 21 15
22 20 22 214 0 167 -2 201 -16 214 -14 15 -5 16 98 16 89 0 122 -4 154 -19z
m-6138 -103 l37 -16 -38 -1 c-35 -1 -39 -5 -57 -43 -17 -40 -19 -41 -19 -15
-1 41 -16 63 -53 78 l-33 13 43 4 c39 3 45 7 60 40 l17 37 3 -40 c3 -35 7 -42
40 -57z m-411 -127 c100 -49 246 -124 324 -167 158 -86 157 -80 18 -109 l-86
-17 -196 83 c-146 63 -197 89 -201 104 -3 11 -17 59 -30 108 -14 48 -22 87
-18 87 4 0 89 -40 189 -89z m-185 -39 l22 -93 -54 -49 c-30 -27 -58 -49 -63
-50 -9 0 -219 191 -215 196 2 1 64 27 138 58 96 38 137 51 142 43 4 -7 17 -54
30 -105z m-114 -232 c4 -11 -57 -532 -63 -538 -3 -3 -5 3 -5 14 0 23 -127 686
-137 711 -4 10 40 -26 98 -81 57 -54 105 -102 107 -106z m347 38 c104 -45 191
-82 191 -82 1 -1 -6 -47 -15 -103 l-16 -102 -225 129 c-124 71 -229 131 -234
133 -8 3 92 106 104 107 2 0 90 -37 195 -82z m435 -45 c0 -5 9 -62 20 -128 11
-66 20 -129 20 -141 l0 -20 -142 23 c-77 12 -142 24 -143 25 -3 4 25 192 30
196 3 3 183 47 208 51 4 1 7 -2 7 -6z m-580 -98 c58 -34 144 -85 192 -112 l86
-49 -250 -170 c-138 -93 -255 -171 -260 -172 -5 -2 -6 7 -4 20 3 12 17 133 31
268 14 135 27 260 30 278 l6 32 32 -16 c17 -10 79 -45 137 -79z m475 -199 c72
-13 123 -26 115 -29 -8 -4 -132 -51 -275 -106 -143 -54 -307 -118 -365 -141
-130 -52 -180 -70 -180 -65 0 5 327 231 444 307 50 32 100 58 111 57 11 0 79
-11 150 -23z m1081 -163 c25 -16 54 -71 54 -102 0 -90 -92 -149 -175 -112 -65
29 -90 96 -61 164 28 69 117 93 182 50z m1322 11 c28 -20 29 -61 0 -91 l-22
-23 22 -22 21 -21 19 23 c26 32 48 18 25 -16 -15 -24 -15 -27 6 -55 21 -28 21
-29 3 -29 -11 0 -25 6 -31 14 -10 11 -17 11 -47 -4 -37 -20 -89 -13 -106 12
-16 26 -8 67 18 91 22 21 23 25 10 37 -29 23 -14 79 24 93 25 9 35 8 58 -9z
m2199 1 c70 -20 98 -134 47 -194 -64 -77 -186 -50 -213 47 -18 63 21 133 85
152 29 8 38 7 81 -5z m1219 0 c21 -9 34 -20 31 -27 -2 -7 -11 -11 -18 -9 -8 2
-30 6 -51 9 -29 3 -38 0 -47 -17 -13 -23 -12 -24 68 -64 53 -26 66 -45 57 -80
-8 -33 -38 -50 -88 -50 -43 0 -96 29 -80 45 7 7 17 6 31 -2 12 -6 39 -10 59
-8 32 3 37 6 37 28 0 18 -8 28 -30 38 -87 37 -102 53 -91 96 4 18 18 32 39 41
41 18 41 18 83 0z m-5136 -10 c15 -18 3 -42 -13 -26 -6 6 -28 11 -50 11 -29 0
-46 -7 -68 -29 -62 -63 -17 -158 72 -149 30 3 34 7 37 36 3 30 1 32 -27 32
-21 0 -31 5 -31 15 0 11 12 15 45 15 l45 0 0 -55 c0 -64 -13 -75 -85 -75 -40
0 -52 5 -81 34 -28 28 -34 42 -34 75 0 48 20 93 52 115 29 21 121 21 138 1z
m680 -90 l0 -105 55 0 c42 0 55 -3 55 -15 0 -12 -14 -15 -70 -15 l-70 0 0 120
c0 100 3 120 15 120 12 0 15 -18 15 -105z m440 90 c42 -22 60 -53 60 -107 0
-38 -6 -54 -29 -80 -26 -30 -35 -33 -100 -36 l-71 -4 0 121 0 121 55 0 c31 0
69 -7 85 -15z m1288 -19 c33 -31 37 -39 37 -85 0 -44 -4 -55 -32 -83 -30 -29
-40 -33 -103 -36 l-70 -4 0 121 0 121 65 0 c60 0 68 -3 103 -34z m272 -86 c0
-100 -2 -120 -15 -120 -12 0 -15 20 -15 120 0 100 3 120 15 120 13 0 15 -20
15 -120z m343 83 c8 -21 31 -75 51 -120 32 -74 33 -83 17 -83 -11 0 -24 12
-31 30 -12 29 -15 30 -71 30 -55 0 -59 -2 -74 -30 -9 -16 -22 -30 -30 -30 -8
0 -15 1 -15 3 0 2 18 46 41 98 23 52 45 104 50 117 14 35 45 28 62 -15z m356
-40 l39 -78 38 78 c31 62 43 77 61 77 21 0 23 -5 23 -52 0 -29 3 -83 7 -120 5
-58 4 -68 -10 -68 -17 0 -25 37 -30 135 l-2 50 -35 -67 c-45 -88 -59 -88 -103
-1 l-34 67 -7 -92 c-6 -77 -10 -92 -24 -92 -15 0 -17 9 -10 83 3 45 7 99 7
120 1 30 5 37 21 37 15 0 30 -20 59 -77z m919 -15 l67 -92 3 92 c2 73 6 92 17
92 12 0 15 -21 15 -120 0 -110 -2 -120 -19 -120 -12 0 -41 32 -82 91 l-64 91
-3 -91 c-2 -83 -5 -91 -22 -91 -19 0 -20 7 -20 120 0 114 1 120 20 120 14 0
41 -29 88 -92z m463 75 c65 -39 75 -131 19 -187 -26 -27 -38 -31 -100 -34
l-70 -4 0 121 0 121 61 0 c39 0 71 -6 90 -17z m1189 -563 l0 -30 -3680 0
-3680 0 0 30 0 30 3680 0 3680 0 0 -30z m-103 -431 c-211 -522 -503 -954 -913
-1348 -624 -599 -1288 -920 -2149 -1037 -183 -25 -614 -25 -815 -1 -249 31
-610 107 -660 139 -12 8 -11 8 3 4 46 -15 227 -48 339 -62 167 -21 671 -30
853 -15 593 49 1168 228 1651 512 713 420 1332 1090 1674 1811 35 75 66 136
67 134 2 -2 -21 -63 -50 -137z m-1278 -1162 c-362 -348 -885 -644 -1396 -791
-147 -42 -318 -79 -335 -73 -7 3 -3 6 9 6 42 2 328 80 463 127 358 124 691
299 985 518 124 92 278 221 329 275 17 17 32 31 35 31 3 -1 -37 -42 -90 -93z"/>
<path d="M2279 5844 c-20 -24 -65 -44 -100 -44 l-32 0 27 -21 c31 -24 56 -69
56 -99 0 -21 0 -21 30 3 34 29 94 51 115 43 24 -9 17 2 -20 35 -21 19 -37 43
-41 65 -7 38 -15 42 -35 18z"/>
<path d="M4948 5380 l-66 -120 135 0 134 0 -52 98 c-29 53 -58 107 -64 119 -5
13 -12 23 -15 23 -3 -1 -35 -55 -72 -120z"/>
<path d="M4342 5468 c-52 -87 -113 -200 -109 -204 2 -3 63 -3 135 -2 l130 3
-62 112 c-34 61 -64 114 -68 118 -3 3 -15 -9 -26 -27z"/>
<path d="M3190 5435 l0 -105 84 0 c126 0 176 27 176 95 0 78 -61 115 -185 115
l-75 0 0 -105z"/>
<path d="M3547 4549 c-11 -6 -25 -26 -33 -45 -25 -61 16 -124 81 -124 39 0 65
18 81 56 26 62 -16 124 -83 124 -15 0 -36 -5 -46 -11z"/>
<path d="M4932 4558 c-16 -16 -15 -33 3 -48 12 -10 18 -10 30 0 20 16 19 46
-1 54 -20 8 -18 8 -32 -6z"/>
<path d="M4916 4441 c-26 -28 -17 -55 19 -59 17 -1 37 2 45 8 13 8 10 14 -16
40 -30 30 -30 31 -48 11z"/>
<path d="M7076 4529 c-35 -41 -34 -83 3 -120 20 -20 39 -29 61 -29 43 0 90 47
90 90 0 45 -47 90 -93 90 -27 0 -41 -7 -61 -31z"/>
<path d="M4280 4470 l0 -90 41 0 c52 0 99 42 99 90 0 48 -47 90 -99 90 l-41 0
0 -90z"/>
<path d="M5540 4471 l0 -91 35 0 c42 0 90 22 99 45 12 32 6 83 -12 105 -13 16
-32 24 -70 28 l-52 5 0 -92z"/>
<path d="M6233 4495 l-21 -55 44 0 c24 0 44 4 44 9 0 9 -39 101 -43 101 -1 0
-12 -25 -24 -55z"/>
<path d="M7910 4471 l0 -91 35 0 c42 0 90 22 99 45 12 32 6 83 -12 105 -13 16
-32 24 -70 28 l-52 5 0 -92z"/>
</g>
</svg>
